<svg xmlns:xlink="http://www.w3.org/1999/xlink" width="98.831" xmlns="http://www.w3.org/2000/svg" height="96.047" id="screenshot-4c13bd60-082e-80ca-8002-4429d03fb5e5" viewBox="-6.541 -26.047 98.831 96.047" style="-webkit-print-color-adjust: exact;" fill="none" version="1.1"><g id="shape-4c13bd60-082e-80ca-8002-4429d03fb5e5" rx="0" ry="0"><g id="shape-4c13bd60-082e-80ca-8002-4429d03fb5e7"><g class="fills" id="fills-4c13bd60-082e-80ca-8002-4429d03fb5e7"><path rx="0" ry="0" d="M89.180,12.712C89.216,12.816,89.251,12.919,89.287,13.023L89.180,12.712ZM48.236,70.000L47.419,70.000C30.888,69.687,16.607,60.146,9.570,46.338L19.019,43.818C24.657,53.621,35.269,60.233,47.419,60.233L47.419,69.992M89.263,13.023L89.263,13.023ZM91.568,26.860L91.568,26.860Z" style="fill: rgb(30, 41, 59); fill-opacity: 1;"/></g></g><g id="shape-4c13bd60-082e-80ca-8002-4429d03fb5e8"><g class="fills" id="fills-4c13bd60-082e-80ca-8002-4429d03fb5e8"><ellipse rx="11.44594594594605" ry="11.395348837208985" cx="11.44594594594605" cy="21.16279069767461" transform="matrix(1.000000, 0.000000, 0.000000, 1.000000, 0.000000, 0.000000)" style="fill: rgb(30, 41, 59); fill-opacity: 1;"/></g></g><g id="shape-4c13bd60-082e-80ca-8002-4429d03fb5e9"><g class="fills" id="fills-4c13bd60-082e-80ca-8002-4429d03fb5e9"><path rx="0" ry="0" d="M58.865,0.000C70.597,0.000,80.122,9.483,80.122,21.163L80.122,42.326L70.311,42.326L70.311,38.995C67.006,41.103,63.078,42.326,58.865,42.326C47.133,42.326,37.608,32.843,37.608,21.163C37.608,9.483,47.133,0.000,58.865,0.000ZM58.865,9.767C52.548,9.767,47.419,14.874,47.419,21.163C47.419,27.452,52.548,32.558,58.865,32.558C65.182,32.558,70.311,27.452,70.311,21.163C70.311,14.874,65.182,9.767,58.865,9.767Z" style="fill: rgb(30, 41, 59); fill-opacity: 1;"/></g></g></g></svg>