<svg xmlns:xlink="http://www.w3.org/1999/xlink" width="664" xmlns="http://www.w3.org/2000/svg" height="175.092" id="screenshot-70f46c42-fbf9-809d-8002-9060cc8e918c" viewBox="0 0 664 175.092" style="-webkit-print-color-adjust: exact;" fill="none" version="1.1"><g id="shape-70f46c42-fbf9-809d-8002-9060cc8e918c" rx="0" ry="0"><g id="shape-70f46c42-fbf9-809d-8002-905ed16900fb" rx="0" ry="0"><g id="shape-70f46c42-fbf9-809d-8002-905e6d77f205"><g class="fills" id="fills-70f46c42-fbf9-809d-8002-905e6d77f205"><path d="M4,0 h655.9999999999995 a4,4 0 0 1 4,4 v165.99999999999966 a4,4 0 0 1 -4,4 h-655.9999999999995 a4,4 0 0 1 -4,-4 v-165.99999999999966 a4,4 0 0 1 4,-4 z" x="0" y="0" transform="matrix(1.000000, 0.000000, 0.000000, 1.000000, 0.000000, 0.000000)" width="663.9999999999995" height="173.99999999999966" style="fill: rgb(239, 68, 68); fill-opacity: 1;"/></g></g><g id="shape-70f46c42-fbf9-809d-8002-905e5ab13e8a" width="100" height="100" preserveAspectRatio="none" rx="0" ry="0" style="fill: rgb(0, 0, 0);"><g id="shape-70f46c42-fbf9-809d-8002-905e5ab23cee"><g class="fills" id="fills-70f46c42-fbf9-809d-8002-905e5ab23cee"><path rx="0" ry="0" d="M7.000,173.706C169.549,72.901,330.650,54.496,477.946,140.833C526.000,169.000,529.000,174.000,529.000,174.000L7.000,173.706Z" style="fill: rgb(58, 58, 58); fill-opacity: 0.15;"/></g></g></g><g id="shape-70f46c42-fbf9-809d-8002-905e5aa009c4" width="100" height="100" preserveAspectRatio="none" rx="0" ry="0" style="fill: rgb(0, 0, 0);"><g id="shape-70f46c42-fbf9-809d-8002-905e5aa176bd"><g class="fills" id="fills-70f46c42-fbf9-809d-8002-905e5aa176bd"><path rx="0" ry="0" d="M6.000,174.000C88.082,67.490,186.311,48.694,300.687,117.612C415.063,186.531,536.168,186.531,664.000,117.612C664.000,117.612,664.000,144.000,664.000,170.000C663.500,174.000,660.000,174.000,660.000,174.000L6.000,174.000Z" style="fill: rgb(74, 74, 74); fill-opacity: 0.15;"/></g></g></g><g id="shape-70f46c42-fbf9-809d-8002-905e5ac10fa1" width="100" height="100" preserveAspectRatio="none" rx="0" ry="0" style="fill: rgb(0, 0, 0);"><g id="shape-70f46c42-fbf9-809d-8002-905e5ac22dfe"><g class="fills" id="fills-70f46c42-fbf9-809d-8002-905e5ac22dfe"><path rx="0" ry="0" d="M118.000,175.092C313.157,75.967,494.515,83.513,652.500,174.000L118.000,175.092Z" style="fill: rgb(128, 128, 128); fill-opacity: 0.15;"/></g></g></g><g id="shape-70f46c42-fbf9-809d-8002-905e6d77f206" rx="0" ry="0"><g id="shape-70f46c42-fbf9-809d-8002-905e6d77f207" rx="0" ry="0"><g id="shape-70f46c42-fbf9-809d-8002-905e6d77f209"><g class="fills" id="fills-70f46c42-fbf9-809d-8002-905e6d77f209"><path rx="0" ry="0" d="M226.180,69.712C226.216,69.816,226.251,69.919,226.287,70.023L226.180,69.712ZM185.236,127.000L185.236,127.000ZL184.419,127.000C167.888,126.687,153.607,117.146,146.570,103.338L156.019,100.818C161.657,110.621,172.269,117.233,184.419,117.233L184.419,126.992M226.263,70.023L226.263,70.023ZM228.568,83.860L228.568,83.860Z" style="fill: rgb(30, 41, 59); fill-opacity: 1;"/></g></g><g id="shape-70f46c42-fbf9-809d-8002-905e6d77f20a"><g class="fills" id="fills-70f46c42-fbf9-809d-8002-905e6d77f20a"><ellipse rx="11.44594594594605" ry="11.39534883720927" cx="148.44594594594605" cy="78.16279069767467" transform="matrix(1.000000, 0.000000, 0.000000, 1.000000, 0.000000, 0.000000)" style="fill: rgb(30, 41, 59); fill-opacity: 1;"/></g></g><g id="shape-70f46c42-fbf9-809d-8002-905e6d77f20b"><g class="fills" id="fills-70f46c42-fbf9-809d-8002-905e6d77f20b"><path rx="0" ry="0" d="M195.865,57.000C207.597,57.000,217.122,66.483,217.122,78.163L217.122,99.326L207.311,99.326L207.311,95.995C204.006,98.103,200.078,99.326,195.865,99.326C184.133,99.326,174.608,89.843,174.608,78.163C174.608,66.483,184.133,57.000,195.865,57.000ZM195.865,66.767C189.548,66.767,184.419,71.874,184.419,78.163C184.419,84.452,189.548,89.558,195.865,89.558C202.182,89.558,207.311,84.452,207.311,78.163C207.311,71.874,202.182,66.767,195.865,66.767Z" style="fill: rgb(30, 41, 59); fill-opacity: 1;"/></g></g></g><g id="shape-70f46c42-fbf9-809d-8002-905e6d77f208"><g class="fills" id="fills-70f46c42-fbf9-809d-8002-905e6d77f208"><path rx="0" ry="0" d="M457.486,76.535L462.392,76.535L462.392,99.326L457.486,99.326L457.486,76.535ZM331.581,57.000C343.313,57.000,352.838,66.483,352.838,78.163C352.838,89.843,343.313,99.326,331.581,99.326C319.849,99.326,310.324,89.843,310.324,78.163C310.324,66.483,319.849,57.000,331.581,57.000ZM331.581,61.884C322.557,61.884,315.230,69.178,315.230,78.163C315.230,87.147,322.557,94.442,331.581,94.442C340.606,94.442,347.932,87.147,347.932,78.163C347.932,69.178,340.606,61.884,331.581,61.884ZM249.824,57.000C261.556,57.000,271.081,66.483,271.081,78.163C271.081,89.843,261.556,99.326,249.824,99.326C238.092,99.326,228.568,89.843,228.568,78.163C228.568,66.483,238.092,57.000,249.824,57.000ZM249.824,61.884C240.800,61.884,233.473,69.178,233.473,78.163C233.473,87.147,240.800,94.442,249.824,94.442C258.849,94.442,266.176,87.147,266.176,78.163C266.176,69.178,258.849,61.884,249.824,61.884ZM495.095,76.535L500.000,76.535L500.000,99.326L495.095,99.326L495.095,76.535ZM426.419,57.000C438.151,57.000,447.676,66.483,447.676,78.163C447.676,89.843,438.151,99.326,426.419,99.326C414.687,99.326,405.162,89.843,405.162,78.163C405.162,66.483,414.687,57.000,426.419,57.000ZM426.419,61.884C417.394,61.884,410.068,69.178,410.068,78.163C410.068,87.147,417.394,94.442,426.419,94.442C435.443,94.442,442.770,87.147,442.770,78.163C442.770,69.178,435.443,61.884,426.419,61.884ZM442.770,76.535L447.676,76.535L447.676,99.326L442.770,99.326L442.770,76.535ZM478.743,61.585C469.719,61.585,462.392,68.433,462.392,76.868L462.392,89.558C459.329,86.115,457.486,81.691,457.486,76.868C457.486,65.903,467.011,57.000,478.743,57.000C490.475,57.000,500.000,65.903,500.000,76.868C500.000,81.691,498.157,86.115,495.095,89.558L495.095,76.868C495.095,68.433,487.768,61.585,478.743,61.585ZM228.568,76.535L233.473,76.535L233.473,112.349L228.568,112.349L228.568,76.535ZM297.243,61.990C290.462,63.509,285.351,70.121,285.351,78.037L285.351,91.634C282.567,87.945,280.892,83.205,280.892,78.037C280.892,67.402,287.987,58.577,297.243,57.000L297.243,61.990ZM280.892,78.037L285.351,78.037L285.351,99.326L280.892,99.326L280.892,78.037ZM361.768,57.000L356.108,57.000L380.635,99.326L405.162,57.000L399.502,57.000L380.635,89.558L361.768,57.000Z" style="fill: rgb(30, 41, 59); fill-opacity: 1;"/></g></g></g></g></g></svg>