<svg xmlns:xlink="http://www.w3.org/1999/xlink" width="30.221" xmlns="http://www.w3.org/2000/svg" height="29.5" id="screenshot-4c13bd60-082e-80ca-8002-423de2950ba6" viewBox="-2 -8 30.221 29.5" style="-webkit-print-color-adjust: exact;" fill="none" version="1.1"><g id="shape-4c13bd60-082e-80ca-8002-423de2950ba6" rx="0" ry="0"><g id="shape-4c13bd60-082e-80ca-8002-423de2950ba8"><g class="fills" id="fills-4c13bd60-082e-80ca-8002-423de2950ba8"><path rx="0" ry="0" d="M27.270,3.904C27.281,3.936,27.292,3.968,27.303,4.000M27.295,4.000L27.295,4.000ZM14.500,21.498C9.445,21.404,5.078,18.473,2.926,14.233L5.816,13.458C7.540,16.469,10.785,18.500,14.500,18.500L14.500,21.498ZL14.500,21.498ZL14.750,21.500L14.750,21.500M28.000,8.250L28.000,8.250Z" style="fill: rgb(30, 41, 59); fill-opacity: 1;"/></g></g><g id="shape-4c13bd60-082e-80ca-8002-423de2950ba9"><g class="fills" id="fills-4c13bd60-082e-80ca-8002-423de2950ba9"><ellipse rx="3.5" ry="3.5" cx="3.5" cy="6.5" transform="matrix(1.000000, 0.000000, 0.000000, 1.000000, 0.000000, 0.000000)" style="fill: rgb(30, 41, 59); fill-opacity: 1;"/></g></g><g id="shape-4c13bd60-082e-80ca-8002-423de2950baa"><g class="fills" id="fills-4c13bd60-082e-80ca-8002-423de2950baa"><path rx="0" ry="0" d="M18.000,0.000C21.587,0.000,24.500,2.913,24.500,6.500L24.500,13.000L21.500,13.000L21.500,11.977C20.489,12.624,19.288,13.000,18.000,13.000C14.413,13.000,11.500,10.087,11.500,6.500C11.500,2.913,14.413,0.000,18.000,0.000ZM18.000,3.000C16.068,3.000,14.500,4.568,14.500,6.500C14.500,8.432,16.068,10.000,18.000,10.000C19.932,10.000,21.500,8.432,21.500,6.500C21.500,4.568,19.932,3.000,18.000,3.000Z" style="fill: rgb(30, 41, 59); fill-opacity: 1;"/></g></g></g></svg>