<svg xmlns:xlink="http://www.w3.org/1999/xlink" width="56" xmlns="http://www.w3.org/2000/svg" height="56" id="screenshot-2e7db4b7-da37-8049-8003-3d2f09a10267" viewBox="0 0 56 56" style="-webkit-print-color-adjust: exact;" fill="none" version="1.1"><g id="shape-2e7db4b7-da37-8049-8003-3d2f09a10267" rx="0" ry="0"><g id="shape-2e7db4b7-da37-8049-8003-3d2f09a10268"><g class="fills" id="fills-2e7db4b7-da37-8049-8003-3d2f09a10268"><rect rx="0" ry="0" x="0" y="0" transform="matrix(1.000000, 0.000000, 0.000000, 1.000000, 0.000000, 0.000000)" width="56" height="56" style="fill: rgb(99, 102, 241); fill-opacity: 1;"/></g></g><g id="shape-2e7db4b7-da37-8049-8003-3d2f09a10269" rx="0" ry="0"><g id="shape-2e7db4b7-da37-8049-8003-3d2f09a1026a"><g class="fills" id="fills-2e7db4b7-da37-8049-8003-3d2f09a1026a"><path rx="0" ry="0" d="M43.270,22.904C43.281,22.936,43.292,22.968,43.303,23.000M43.295,23.000L43.295,23.000ZM30.500,40.498C25.445,40.404,21.078,37.473,18.926,33.233L21.816,32.458C23.540,35.469,26.785,37.500,30.500,37.500L30.500,37.500L30.500,40.498ZL30.500,40.498ZL30.750,40.500M44.000,27.250L44.000,27.250Z" style="fill: rgb(255, 255, 255); fill-opacity: 1;"/></g></g><g id="shape-2e7db4b7-da37-8049-8003-3d2f09a1026b"><g class="fills" id="fills-2e7db4b7-da37-8049-8003-3d2f09a1026b"><ellipse rx="3.5" ry="3.5" cx="19.5" cy="25.5" transform="matrix(1.000000, 0.000000, 0.000000, 1.000000, 0.000000, 0.000000)" style="fill: rgb(255, 255, 255); fill-opacity: 1;"/></g></g><g id="shape-2e7db4b7-da37-8049-8003-3d2f09a1026c"><g class="fills" id="fills-2e7db4b7-da37-8049-8003-3d2f09a1026c"><path rx="0" ry="0" d="M34.000,19.000C37.587,19.000,40.500,21.913,40.500,25.500L40.500,32.000L37.500,32.000L37.500,30.977C36.489,31.624,35.288,32.000,34.000,32.000C30.413,32.000,27.500,29.087,27.500,25.500C27.500,21.913,30.413,19.000,34.000,19.000ZM34.000,22.000C32.068,22.000,30.500,23.568,30.500,25.500C30.500,27.432,32.068,29.000,34.000,29.000C35.932,29.000,37.500,27.432,37.500,25.500C37.500,23.568,35.932,22.000,34.000,22.000Z" style="fill: rgb(255, 255, 255); fill-opacity: 1;"/></g></g></g></g></svg>