<svg xmlns:xlink="http://www.w3.org/1999/xlink" width="113" xmlns="http://www.w3.org/2000/svg" height="29.5" id="screenshot-4c13bd60-082e-80ca-8002-423de2950ba5" viewBox="-2 -8 113 29.5" style="-webkit-print-color-adjust: exact;" fill="none" version="1.1"><g id="shape-4c13bd60-082e-80ca-8002-423de2950ba5" rx="0" ry="0"><g id="shape-4c13bd60-082e-80ca-8002-423de2950ba6" rx="0" ry="0"><g id="shape-4c13bd60-082e-80ca-8002-423de2950ba8"><g class="fills" id="fills-4c13bd60-082e-80ca-8002-423de2950ba8"><path rx="0" ry="0" d="M27.270,3.904C27.281,3.936,27.292,3.968,27.303,4.000M27.295,4.000L27.295,4.000ZM14.500,21.498C9.445,21.404,5.078,18.473,2.926,14.233L5.816,13.458C7.540,16.469,10.785,18.500,14.500,18.500L14.500,21.498ZL14.500,21.498ZL14.750,21.500L14.750,21.500M28.000,8.250L28.000,8.250Z" style="fill: rgb(30, 41, 59); fill-opacity: 1;"/></g></g><g id="shape-4c13bd60-082e-80ca-8002-423de2950ba9"><g class="fills" id="fills-4c13bd60-082e-80ca-8002-423de2950ba9"><ellipse rx="3.5" ry="3.5" cx="3.5" cy="6.5" transform="matrix(1.000000, 0.000000, 0.000000, 1.000000, 0.000000, 0.000000)" style="fill: rgb(30, 41, 59); fill-opacity: 1;"/></g></g><g id="shape-4c13bd60-082e-80ca-8002-423de2950baa"><g class="fills" id="fills-4c13bd60-082e-80ca-8002-423de2950baa"><path rx="0" ry="0" d="M18.000,0.000C21.587,0.000,24.500,2.913,24.500,6.500L24.500,13.000L21.500,13.000L21.500,11.977C20.489,12.624,19.288,13.000,18.000,13.000C14.413,13.000,11.500,10.087,11.500,6.500C11.500,2.913,14.413,0.000,18.000,0.000ZM18.000,3.000C16.068,3.000,14.500,4.568,14.500,6.500C14.500,8.432,16.068,10.000,18.000,10.000C19.932,10.000,21.500,8.432,21.500,6.500C21.500,4.568,19.932,3.000,18.000,3.000Z" style="fill: rgb(30, 41, 59); fill-opacity: 1;"/></g></g></g><g id="shape-4c13bd60-082e-80ca-8002-423de2950ba7"><g class="fills" id="fills-4c13bd60-082e-80ca-8002-423de2950ba7"><path rx="0" ry="0" d="M98.000,6.000L99.500,6.000L99.500,13.000L98.000,13.000L98.000,6.000ZM59.500,0.000C63.087,0.000,66.000,2.913,66.000,6.500C66.000,10.087,63.087,13.000,59.500,13.000C55.913,13.000,53.000,10.087,53.000,6.500C53.000,2.913,55.913,0.000,59.500,0.000ZM59.500,1.500C56.740,1.500,54.500,3.740,54.500,6.500C54.500,9.260,56.740,11.500,59.500,11.500C62.260,11.500,64.500,9.260,64.500,6.500C64.500,3.740,62.260,1.500,59.500,1.500ZM34.500,0.000C38.087,0.000,41.000,2.913,41.000,6.500C41.000,10.087,38.087,13.000,34.500,13.000C30.913,13.000,28.000,10.087,28.000,6.500C28.000,2.913,30.913,0.000,34.500,0.000ZM34.500,1.500C31.740,1.500,29.500,3.740,29.500,6.500C29.500,9.260,31.740,11.500,34.500,11.500C37.260,11.500,39.500,9.260,39.500,6.500C39.500,3.740,37.260,1.500,34.500,1.500ZM109.500,6.000L111.000,6.000L111.000,13.000L109.500,13.000L109.500,6.000ZM88.500,0.000C92.087,0.000,95.000,2.913,95.000,6.500C95.000,10.087,92.087,13.000,88.500,13.000C84.913,13.000,82.000,10.087,82.000,6.500C82.000,2.913,84.913,0.000,88.500,0.000ZM88.500,1.500C85.740,1.500,83.500,3.740,83.500,6.500C83.500,9.260,85.740,11.500,88.500,11.500C91.260,11.500,93.500,9.260,93.500,6.500C93.500,3.740,91.260,1.500,88.500,1.500ZM93.500,6.000L95.000,6.000L95.000,13.000L93.500,13.000L93.500,6.000ZM104.500,1.408C101.740,1.408,99.500,3.512,99.500,6.102L99.500,10.000C98.563,8.943,98.000,7.584,98.000,6.102C98.000,2.734,100.913,0.000,104.500,0.000C108.087,0.000,111.000,2.734,111.000,6.102C111.000,7.584,110.437,8.943,109.500,10.000L109.500,6.102C109.500,3.512,107.260,1.408,104.500,1.408ZM28.000,6.000L29.500,6.000L29.500,17.000L28.000,17.000L28.000,6.000ZM49.000,1.533C46.926,1.999,45.364,4.030,45.364,6.461L45.364,10.638C44.512,9.505,44.000,8.049,44.000,6.461C44.000,3.195,46.170,0.484,49.000,0.000L49.000,1.533ZM44.000,6.461L45.364,6.461L45.364,13.000L44.000,13.000L44.000,6.461ZM68.731,0.000L67.000,0.000L74.500,13.000L82.000,0.000L80.269,0.000L74.500,10.000L68.731,0.000Z" style="fill: rgb(30, 41, 59); fill-opacity: 1;"/></g></g></g></svg>